<?xml version="1.0" encoding="utf-8"?>
<svg xmlns="http://www.w3.org/2000/svg" width="32" height="32" viewBox="-90 -90 1695 2101" preserveAspectRatio="xMidYMid meet">
  <path fill="white" d="M0 0L351.651 0L1163.34 0L1515 0L1515 610.499L1515 719.589L1515 1792.45L1515 1901.52L1515 1921L1496.18 1921L1238.15 1921L0 1921L0 719.681L0 610.401L0 0Z"/>
  <path fill="#1D1F1F" d="M351.651 0L1163.34 0C1172.58 3.5319 1181.96 10.1344 1182.19 21.1924C1182.71 46.3055 1182.4 71.4439 1182.53 96.5837C1182.58 107.515 1183.15 119.653 1181.37 130.432C1179.49 139.566 1169.93 147.277 1160.87 147.481C1139.53 147.961 1117.82 147.758 1096.55 147.76L969.527 147.768L514.371 147.759C492.98 147.758 358.349 149.906 347.801 146.139C341.303 143.818 337.04 139.033 334.34 132.865C331.056 125.363 331.904 37.7783 332.767 24.5399C333.006 20.8658 333.336 17.1179 334.794 13.6962C338 6.16902 344.538 2.90186 351.651 0Z"/>
  <path fill="#1D1F1F" d="M0 610.401C5.80354 595.595 11.8478 591.134 28.0094 591.032C55.6489 590.858 83.2944 591.024 110.936 591.041L275.71 591.044L443.496 591.041C472.377 591.044 501.247 590.979 530.138 591.166C545.426 591.265 553.948 602.56 554.312 616.975C554.978 643.362 553.929 669.882 554.246 696.286C554.817 721.147 555.572 738.88 524.003 738.93C503.227 738.962 481.77 738.924 460.873 738.902L340.859 738.854L130.131 738.853C96.1315 738.858 62.0186 738.975 28.014 738.959C23.4335 738.956 16.2866 738.138 12.3513 735.94C5.15028 731.918 2.8586 726.708 0 719.681L0 610.401Z"/>
  <path fill="#1D1F1F" d="M1238.15 1921C1213.42 1910.73 1219.82 1892.58 1219.57 1870.7C1219.76 1846.79 1218.86 1822.8 1219.43 1798.9C1220.29 1782.68 1228.59 1773.39 1245.28 1773.35C1326.91 1773.15 1408.55 1773.12 1490.17 1773.38C1504.28 1773.42 1510.21 1780.17 1515 1792.45L1515 1901.52L1515 1921L1496.18 1921L1238.15 1921Z"/>
  <path fill="white" d="M1515 1901.52L1515 1921L1496.18 1921C1497.21 1920.59 1498.22 1920.15 1499.23 1919.7C1508.96 1915.23 1511.56 1910.97 1515 1901.52Z"/>
  <path fill="#1D1F1F" d="M1515 719.589C1510.67 731.853 1503.59 738.513 1490.23 738.759C1474.65 739.046 1459.08 738.948 1443.5 738.943L1358.64 738.896L1284.75 738.777C1273.58 738.828 1244.57 740.494 1235.36 737.408C1229.35 735.388 1224.48 730.9 1221.99 725.07C1220.39 721.427 1219.59 717.401 1219.33 713.443C1218.36 698.928 1219.44 683.526 1219.39 668.919C1219.32 651.436 1218.02 632.953 1219.55 615.568C1219.9 611.574 1220.74 607.614 1222.37 603.937C1225.01 598.004 1229.55 594.477 1235.62 592.37C1243.12 589.769 1466.39 590.319 1488.87 591.157C1493.22 591.319 1497.41 591.45 1501.39 593.357C1508.93 596.965 1512.27 603.052 1515 610.499L1515 719.589Z"/>
  <path fill="#1D1F1F" d="M349.956 1180.16C365.697 1178.52 403.806 1179.62 420.771 1179.64L559.241 1179.66L1008.72 1179.64C1028.03 1179.64 1157.37 1177.61 1167.33 1181.12C1172.62 1182.99 1177.42 1187.75 1179.84 1192.75C1181.26 1195.68 1181.92 1198.65 1182.19 1201.86C1183.38 1215.74 1183.9 1307.42 1180.58 1315.65C1177.75 1322.67 1171.55 1326.63 1164.83 1329.24C1155.17 1330.79 1108.24 1329.96 1096.35 1329.95L948.32 1329.94L491.718 1329.97L394.209 1329.97C383.654 1329.97 359.111 1331.7 349.853 1328.98C343.818 1327.2 339.408 1324.64 336.504 1318.94C334.375 1314.77 333.271 1310.09 332.816 1305.45C331.539 1292.43 331.362 1202.89 334.411 1194.51C337.206 1186.84 342.929 1183.32 349.956 1180.16Z"/>
  <path fill="#1D1F1F" d="M95.1696 886.615C126.841 885.791 162.317 886.57 194.234 886.569L390.178 886.557L531.409 886.512C556.13 886.508 581.299 885.471 605.967 886.821C609.591 887.019 612.996 887.963 616.174 889.747C621.838 892.928 624.867 897.534 626.664 903.646C628.94 911.392 629.406 1001.74 628.025 1012.94C627.592 1016.46 626.514 1019.97 624.697 1023.02C620.752 1029.66 614.647 1032.47 607.532 1034.33C501.787 1035.77 392.815 1034.44 286.845 1034.43L161.76 1034.42C140.517 1034.43 118.937 1035.42 97.7462 1034.33C93.3114 1034.1 89.5331 1033.22 85.5786 1031.1C79.8315 1028.03 77.2891 1023.93 75.6042 1017.77C73.2286 1009.09 72.7656 918.737 74.1977 907.516C74.646 904.003 75.8051 900.453 77.6715 897.431C81.685 890.934 88.0818 888.229 95.1696 886.615Z"/>
  <path fill="#1D1F1F" d="M94.3005 295.604C123.823 294.727 157.721 295.526 187.519 295.526L368.954 295.524L522.697 295.471C550.045 295.464 577.398 295.281 604.745 295.704C619.879 295.716 627.961 307.964 628.213 321.956C628.649 350.069 628.038 378.267 628.272 406.382C628.425 424.68 629.02 435.924 609.148 443.043C580.593 444.19 547.055 443.348 517.924 443.348L348.501 443.338L183.013 443.324C154.887 443.324 126.387 444.366 98.3003 443.227C94.1075 443.057 90.1866 442.445 86.4111 440.482C80.6309 437.476 77.7456 433.767 75.8636 427.594C72.9977 418.193 72.7887 329.368 74.1714 316.988C74.5553 313.551 75.546 310.076 77.2647 307.063C81.101 300.337 87.2069 297.574 94.3005 295.604Z"/>
  <path fill="#1D1F1F" d="M904.211 1477.75C929.611 1476.99 958.874 1477.66 984.538 1477.66L1141.86 1477.66L1272.02 1477.6C1284.63 1477.6 1344.98 1476.13 1353.6 1480.02C1359.42 1482.7 1363.85 1487.68 1365.85 1493.76C1368.79 1502.79 1366.73 1588.82 1366.71 1605.01C1366.71 1607.31 1365.35 1611.82 1363.95 1613.95C1359.12 1621.32 1353.84 1623.56 1345.97 1625.47L1051.2 1625.49L956.591 1625.51C939.653 1625.52 922.417 1625.68 905.48 1625.28C900.899 1625.18 898.842 1624.24 894.888 1622.26C890.4 1620.01 884.382 1612.96 883.851 1607.89C882.001 1590.22 882.956 1569.91 882.779 1552.05C883.01 1534.57 882.317 1516.84 883.188 1499.4C883.502 1493.1 887.402 1486 892.451 1482.39C896.389 1479.58 899.654 1478.67 904.211 1477.75Z"/>
  <path fill="#1D1F1F" d="M1166.4 886.65C1246.38 883.924 1329.37 888.614 1409.6 886.545C1414.31 886.424 1424.12 887.13 1428.37 889.216C1434.01 892.03 1438.16 897.134 1439.78 903.225C1442.73 913.981 1440.5 995.234 1440.72 1011.9C1440.76 1014.62 1438.93 1021.19 1437.25 1023.66C1432.6 1030.49 1427.37 1032.66 1419.9 1034.37C1369.53 1035.4 1315.48 1034.4 1264.85 1034.38L1205.44 1034.51C1193.65 1034.56 1181.64 1035.09 1169.88 1034.32C1165.67 1034.05 1161.59 1033.4 1157.83 1031.37C1153.31 1028.92 1148.93 1024.68 1147.41 1019.69C1144.44 1009.94 1144.36 923.523 1145.64 909.732C1146.02 905.549 1147.07 901.321 1149.19 897.664C1153.03 891.03 1159.32 888.341 1166.4 886.65Z"/>
  <path fill="#1D1F1F" d="M1165.5 295.634C1247.81 292.622 1333.41 297.497 1416.09 295.625C1431.77 295.269 1440.93 306.463 1441.04 321.572C1441.28 354.282 1440.83 387.303 1440.92 420.037C1440.91 432.61 1432.67 439.509 1421.68 443.069C1414.3 443.375 1406.98 443.35 1399.59 443.341C1324.21 443.243 1248.84 443.402 1173.46 443.342C1162.35 443.333 1152.29 440.564 1147.76 429.249C1146.47 426.017 1145.9 421.678 1145.59 418.201C1145.11 384.982 1145.45 351.686 1145.61 318.467C1145.62 315.556 1147.27 310.272 1148.57 307.748C1152.28 300.504 1158.12 297.792 1165.5 295.634Z"/>
</svg>
