<?xml version="1.0" encoding="utf-8" ?><svg xmlns="http://www.w3.org/2000/svg" xmlns:xlink="http://www.w3.org/1999/xlink" width="2537" height="615" viewBox="0 0 2537 615"><path fill="white" d="M0 0L110.824 0L373.42 0L2537 0L2537 346.287L2537 348.413L2537 615L479.386 615L394.88 615L0 615L0 231.996L0 193.653L0 0Z"/><path fill="#181B1B" d="M2537 348.413C2518.2 385.726 2502.62 422.12 2453.96 426.01C2420.77 428.663 2390.28 424.323 2364.14 402.138C2315.26 360.647 2312.71 272.703 2353.23 224.945C2369.61 205.754 2392.99 193.91 2418.15 192.05C2491.5 186.163 2530.05 222.849 2535.26 294.167L2382.95 294.167C2382.82 321.864 2380.11 396.805 2413.94 408.623C2476.85 430.596 2503.38 392.251 2527.44 342.704L2537 346.287L2537 348.413Z"/><path fill="white" d="M2426.23 201.362C2427.09 201.3 2427.95 201.244 2428.82 201.194C2474.36 198.546 2476.4 250.418 2478.33 284L2435.5 284L2383.23 284C2384.99 252.423 2388.87 208.85 2426.23 201.362Z"/><path fill="#181B1B" d="M110.824 0L373.42 0C374.284 0.679543 376.776 3.21137 376.914 4.08582C378.247 12.5605 381.317 41.7125 373.362 46.6132C352.693 48.2128 114.571 48.0416 110.945 46.6215C110.453 46.4288 109.617 45.6144 109.168 45.2736C107.469 42.0843 106.141 37.367 106.382 33.8122C107.095 23.2527 103.526 8.03712 110.824 0Z"/><path fill="#181B1B" d="M0 193.653C4.08581 189.488 6.27778 189.449 11.9727 189.394C29.1956 189.227 170.449 187.798 173.617 190.802C177.179 194.182 177.325 200.186 177.34 204.786C177.36 210.646 178.656 230.179 174.792 234.102C173.208 235.71 169.972 235.902 167.781 236.044C146.463 237.424 124.404 236.134 103.022 236.079C74.5374 236.006 45.9941 236.813 17.5206 236.368C10.8618 236.264 5.05724 237.018 0 231.996L0 193.653Z"/><path fill="#181B1B" d="M394.88 615C388.343 609.245 389.354 602.956 389.942 594.67C390.478 587.098 388.283 576.428 392.019 570.06C395.328 566.693 475.495 566.698 481.593 569.366C486.054 575.267 483.785 587.68 484.063 595.047C484.365 603.02 486.153 609.499 479.386 615L394.88 615Z"/><path fill="#181B1B" d="M1442.05 94.1743L1527.08 94.1631L1527.08 301.399C1527.08 329.799 1525.37 364.756 1528.67 392.253C1535.34 426.301 1586.34 419.397 1586.89 387.387C1587.83 332.95 1590.07 276.467 1585.44 222.368C1584.58 212.23 1563.86 204.027 1556.13 199.645L1556.14 197.372C1559.8 194.836 1631.41 195.818 1641.13 195.833L1641.08 325.941C1641.08 339.944 1640.23 379.195 1642.5 391.036C1644.03 398.776 1648.56 405.599 1655.09 410.025C1661.67 414.407 1669.59 416.19 1677.38 414.564C1685.16 413.011 1691.95 408.337 1696.19 401.633C1704.28 388.945 1701.81 346.541 1701.82 329.737L1701.83 233.415L1701.8 167.179C1701.79 152.774 1702.21 138.963 1700.27 124.458C1697.36 102.809 1672.79 104.48 1670.91 95.7849C1674.37 93.0508 1745.62 94.1483 1755.17 94.1631L1755.18 219.06C1761.6 210.373 1772.41 199.278 1782.95 196.378C1835.56 182.158 1894.54 195.486 1914.62 251.967C1936.01 312.088 1926.59 395.38 1859.75 421.353C1849.61 424.328 1840.54 425.914 1829.98 426.409C1797.96 427.911 1775.69 426.554 1755.17 398.915L1755.18 422.167L1362.81 422.167L1362.81 399.097C1338.87 432.017 1311.39 429.233 1274.13 423.748C1262.21 421.994 1242.08 410.488 1236.75 398.902C1210.92 342.778 1252.15 318.353 1299.22 304.098C1314.26 299.464 1331.43 291.813 1344.63 285.153C1366.82 276.482 1366.82 236.625 1355.76 220.758C1330.71 184.814 1276.84 215.455 1259.46 245.016C1256.9 249.378 1251.2 258.769 1248.35 260.575C1245.12 260.577 1245.22 261.119 1243.16 259.531C1241.66 245.406 1242.69 211.399 1242.73 195.833L1316.27 195.77C1332.96 195.752 1348.93 194.928 1365.5 197.323C1420.5 205.268 1415.41 250.519 1415.34 292.551L1415.2 354.096C1415.17 365.131 1414.32 378.291 1416.52 388.973C1424.58 428.174 1472.7 421.076 1473.39 381.904C1473.66 366.678 1473.69 350.141 1473.65 334.689L1473.58 250.805L1473.66 172.947C1473.7 148.047 1479.97 112.334 1453.12 103.279C1445.33 100.652 1443.51 101.782 1442.05 94.1743Z"/><path fill="white" d="M1799.09 202.295C1862.48 197.492 1863.01 252.528 1865.45 300.653C1866.98 330.882 1864.73 368.012 1850.32 395.191C1844.44 406.278 1833.55 411.999 1821.71 415.066C1792.15 421.978 1761.26 405.658 1757.04 374.469C1752.94 344.116 1756.2 311.024 1755.08 280.298C1753.74 243.584 1756.43 210.902 1799.09 202.295Z"/><path fill="white" d="M1361.77 287.017L1362.73 288.483C1363.17 300.93 1363.08 315.649 1362.93 328.192C1362.32 351.342 1365.52 383.872 1348.67 402.424C1335.08 417.386 1307.52 422.046 1291.74 407.692C1291.01 406.795 1290.32 405.864 1289.68 404.903C1280.56 391.222 1279.9 359.628 1282.85 343.688C1289.41 308.159 1330.86 307.492 1361.77 287.017Z"/><path fill="#181B1B" d="M811.386 89.49C818.483 89.4423 826.412 89.4668 833.461 89.7876C870.456 91.1037 905.354 107.29 930.255 134.682C990.479 200.926 988.899 329.047 921.664 390.194C943.323 405.055 962.964 410.634 988.052 415.392C988.479 415.473 989.23 417.56 989.491 418.154L988.672 420.192C985.131 422.47 979.686 422.726 975.592 422.393C947.55 420.115 913.923 425.065 886.523 420.758L878.156 417.717C823.45 435.614 755.837 430.875 712.691 389.42C646.261 325.594 644.211 199.382 707.073 132.48C735.661 102.054 770.669 90.5878 811.386 89.49Z"/><path fill="white" d="M805.803 100.348C875.181 92.5335 901.888 149.603 908.024 207.986C913.467 259.784 913.674 320.683 892.055 368.904C869.027 353.101 854.596 339.009 825.243 338.615C796.302 339.616 769.34 359.217 747.07 375.976C739.029 362.441 731.734 339.498 729.446 323.445C721.282 266.168 718.688 182.369 752.061 132.608C765.492 112.581 783.387 104.207 805.803 100.348Z"/><path fill="white" d="M792.419 369.323C814.784 368.341 841.497 392.15 860.161 405.825C846.229 413.738 838.57 415.157 823.225 416.912C790.301 416.039 774.418 410.579 752.915 384.784C766.687 377.29 776.685 371.627 792.419 369.323Z"/><path fill="#181B1B" d="M1943.79 195.833L2014.23 195.749C2034.14 195.738 2053.75 194.415 2073.31 198.658C2120.95 208.994 2116.6 252.485 2116.46 290.232L2116.21 358.47C2116.12 388.698 2113.28 408.158 2147.3 416.029C2147.27 407.182 2146.07 350.049 2148.67 346.42C2150.32 346.275 2154.13 345.707 2154.92 347.698C2169.24 383.443 2202.89 413.029 2242.85 412.979C2254.61 412.964 2270.21 410.133 2279.01 401.587C2285.56 395.072 2290.13 383.022 2290.02 373.892C2289.84 351.261 2262.69 341.604 2244.4 336.45C2202.36 324.609 2148.21 315.2 2148.27 259.478C2148.22 243.012 2154.72 227.201 2166.33 215.524C2189.42 192.625 2217.68 195.693 2247.17 195.741L2306.16 195.833C2306.18 206.246 2306.88 253.006 2305.37 260.204L2303.26 260.993C2287.76 256.858 2278.46 204.973 2214.01 205.016C2195.71 207.456 2177.86 217.281 2178.74 238.111C2180.25 274.035 2239.59 276.389 2265.07 285.69C2278.88 290.731 2291.79 295.611 2302.61 306.007C2328.15 330.711 2326.43 376.75 2301.53 401.217C2279.72 422.651 2254.55 422.595 2226.28 422.21C2214.31 422.047 2202.13 422.219 2190.16 422.22L2063.86 422.167L2063.86 399.027C2063.49 399.546 2063.12 400.06 2062.74 400.568C2052.69 414.074 2041.66 424.102 2023.91 425.789C1999.24 428.134 1971.08 427.465 1950.27 412.44C1925.64 394.652 1923.42 352.877 1944.82 331.829C1957.01 319.738 1972.07 314.612 1987.84 308.709L2024.86 294.852C2055.92 282.944 2067.37 273.658 2062.89 238.268C2057.52 197.885 2015.34 198.512 1987.67 217.171C1967.67 230.658 1963.99 242.271 1950.96 259.983C1949.01 261.351 1946.91 260.843 1944.51 260.605C1943.13 257.528 1943.78 203.288 1943.79 195.833Z"/><path fill="white" d="M2062.82 287.024L2063.67 288.106C2065.27 315.682 2065.9 363.182 2058.06 389.513C2051.26 412.372 2013.06 426.21 1992.67 407.566C1991.97 406.681 1991.31 405.77 1990.69 404.833C1981.61 391.202 1981.02 359.703 1983.9 343.776C1990.33 308.214 2031.92 307.474 2062.82 287.024Z"/><path fill="#181B1B" d="M978.265 195.833L1063.96 195.833L1063.93 311.001C1063.93 318.959 1063.86 326.577 1063.91 334.903C1064.1 363.324 1058.95 416.216 1100.53 416.116C1108.59 416.097 1117.34 414.555 1124.56 410.789C1134.6 405.661 1142.15 396.704 1145.5 385.943C1147.69 378.688 1149.04 371.205 1149.52 363.641C1150.89 344.879 1151.83 231.494 1146.51 220.163C1139.92 206.126 1121.56 204.943 1118.28 198.643L1118.9 196.858C1125.88 194.938 1191.27 195.8 1203.34 195.833L1203.33 227.5L1203.29 328.286C1203.29 350.074 1201.79 372.053 1205.47 393.691C1209.05 414.721 1232.64 410.699 1235.24 420.443L1234.1 421.917C1207.38 422.793 1176.89 422.16 1149.9 422.167L1149.89 401.11C1149.3 401.918 1148.7 402.722 1148.1 403.52C1128.71 429.008 1102.76 427.344 1074.27 426.395C1012.95 424.353 1010.13 391.749 1010.19 342.635L1010.34 271.496C1010.4 247.542 1016.18 212.979 988.572 204.757C981.368 202.612 978.929 203.194 978.265 195.833Z"/><path fill="#181B1B" d="M109.798 378.018C121.043 377.341 137.475 377.834 149.181 377.825L224.627 377.781L318.316 377.758C326.896 377.759 370.534 376.604 375.266 379.728C379.793 387.313 380.11 418.616 374.434 425.019C368.453 425.992 353.165 425.63 346.656 425.634L293.703 425.643C272.832 425.641 113.74 426.556 109.754 424.165C104.853 417.051 104.546 384.308 109.798 378.018Z"/><path fill="#181B1B" d="M26.9489 95.0338C80.5115 92.0332 139.134 96.7205 193.093 94.9886C205.359 94.5948 202.187 135.171 197.473 141.234C190.623 143.044 32.0972 142.332 27.2197 140.592C22.1217 134.743 21.9781 100.938 26.9489 95.0338Z"/><path fill="#181B1B" d="M27.5472 284.018L137.269 283.876C145.229 283.869 194.082 282.608 197.96 285.825C202.836 293.166 202.878 324.058 196.983 330.846C173.393 332.31 141.943 330.355 117.431 331.003C89.6189 331.025 62.0865 331.036 34.251 331.027C21.7968 332.792 23.4563 314.741 23.5598 306.531C23.6494 299.416 22.5181 289.366 27.5472 284.018Z"/><path fill="#181B1B" d="M286.491 473.02L380.64 472.95C396.51 472.942 412.191 472.765 428.226 473.196C440.423 472.729 436.671 489.525 436.986 497.637C437.299 505.688 438.977 513.991 433.042 520.015C417.725 520.023 288.655 521.841 284.818 518.097C281.04 512.08 282.682 502.987 282.609 495.927C282.524 487.701 280.407 479.17 286.491 473.02Z"/><path fill="#181B1B" d="M369.774 95.0136C381.261 94.5485 452.336 93.747 458.135 96.4972C462.468 102.253 460.429 111.856 460.725 119.066C461.061 127.265 462.564 135.264 456.676 141.529C448.622 142.808 375.202 143.284 368.955 139.538C364.961 133.846 364.623 101.11 369.774 95.0136Z"/><path fill="#181B1B" d="M369.955 284.08C380.52 283.646 454.534 282.898 458.218 285.887C459.352 287.559 461.086 291.178 460.817 293.156C459.29 304.401 464.415 322.122 456.974 330.831C447.489 331.551 373.103 332.289 369.142 329.231C367.178 327.714 366.525 323.77 366.336 321.401C365.778 314.393 365.452 295.053 366.871 289.203C367.351 287.223 368.65 285.595 369.955 284.08Z"/><path fill="#181B1B" d="M395.856 189.385C418.196 189.463 440.265 189.22 463.297 189.221C488.028 189.222 484.347 192.483 484.078 215.855C483.993 223.328 486.716 232.59 479.074 236.166C451.242 236.249 421.883 237.593 394.37 234.897C388.289 234.3 389.698 214.557 390.006 210.145C390.574 201.981 386.852 193.089 395.856 189.385Z"/><path fill="#181B1B" d="M1606.46 110.41C1623.49 107.064 1640 118.164 1643.33 135.194C1646.66 152.224 1635.54 168.725 1618.51 172.037C1601.5 175.344 1585.03 164.247 1581.7 147.241C1578.38 130.235 1589.46 113.751 1606.46 110.41Z"/></svg>